# xmcd
#
# Track frame offsets:
#	150
#	22727
#	44275
#	65185
#	88455
#	118847
#	136937
#	153607
#	174347
#	197502
#	214710
#	234165
#	258895
#	273015
#	301647
#
# Disc length: 4037 seconds
# Revision: 1
# Processed by: cddbd v1.5.2PL0 Copyright (c) Steve Scherf et al.
# Submitted via: dBpowerAMP V12.0
#
DISCID=c30fc30f
DTITLE=Nick Moss and The Flip Tops - Play It 'Til Tomorrow, Program One
DYEAR=2007
DGENRE=Blues
TTITLE0=Late Night Saint
TTITLE1=You Make Me So Angry
TTITLE2=Woman Don't Lie
TTITLE3=Mistakes from the Past
TTITLE4=Bad Avenue
TTITLE5=Lyin' for Profit
TTITLE6=Herman's Holler
TTITLE7=Grease Fire
TTITLE8=Rising Wind
TTITLE9=Tend to Your Business
TTITLE10=My Love Is Like a Fire
TTITLE11=Peculiar Feeling
TTITLE12=Too Many Miles
TTITLE13=The Rump Bump
TTITLE14=[Untitled]
EXTD=
EXTT0=
EXTT1=
EXTT2=
EXTT3=
EXTT4=
EXTT5=
EXTT6=
EXTT7=
EXTT8=
EXTT9=
EXTT10=
EXTT11=
EXTT12=
EXTT13=
EXTT14=
PLAYORDER=
